<svg width="14" height="14" viewBox="0 0 14 14" fill="none" xmlns="http://www.w3.org/2000/svg">
  <path d="M12.8334 12.8336L9.93806 9.9383M9.93806 9.9383C10.4333 9.44304 10.8262 8.85508 11.0942 8.208C11.3622 7.56091 11.5002 6.86737 11.5002 6.16697C11.5002 5.46657 11.3622 4.77302 11.0942 4.12594C10.8262 3.47885 10.4333 2.89089 9.93806 2.39563C9.4428 1.90038 8.85484 1.50751 8.20775 1.23948C7.56067 0.97145 6.86712 0.833496 6.16672 0.833496C5.46632 0.833496 4.77278 0.97145 4.12569 1.23948C3.47861 1.50751 2.89065 1.90038 2.39539 2.39563C1.39517 3.39585 0.833252 4.75244 0.833252 6.16697C0.833252 7.58149 1.39517 8.93808 2.39539 9.9383C3.39561 10.9385 4.7522 11.5004 6.16672 11.5004C7.58125 11.5004 8.93784 10.9385 9.93806 9.9383Z" stroke="#A9A9A9" stroke-width="1.66667" stroke-linecap="round" stroke-linejoin="round"/>
</svg>
